<svg xmlns="http://www.w3.org/2000/svg" xmlns:xlink="http://www.w3.org/1999/xlink" version="1.1" width="1000" height="1000" viewBox="0 0 1000 1000" xml:space="preserve">
<desc>Created with Fabric.js 3.5.0</desc>
<defs>
</defs>
<rect x="0" y="0" width="100%" height="100%" fill="#ffffff"/>
<g transform="matrix(-2.0452 0 0 -2.0452 499.9998 499.9998)" id="485082">
<path style="stroke: none; stroke-width: 1; stroke-dasharray: none; stroke-linecap: butt; stroke-dashoffset: 0; stroke-linejoin: miter; stroke-miterlimit: 4; is-custom-font: none; font-file-url: none; fill: rgb(37,183,155); fill-rule: nonzero; opacity: 1;" vector-effect="non-scaling-stroke" transform=" translate(-222.25, -222.35)" d="M 213.1 222.4 L 351.9 83.7 c 7 -7 10.6 -15.7 10.6 -25.8 c 0 -10.2 -3.5 -18.8 -10.6 -25.8 l -21.4 -21.4 c -7 -7 -15.7 -10.6 -25.8 -10.6 s -18.8 3.5 -25.8 10.6 L 92.6 196.4 c -7 7 -10.6 15.7 -10.6 25.8 s 3.5 18.8 10.6 25.8 L 278.8 434 c 7 7 15.7 10.6 25.8 10.6 s 18.8 -3.5 25.8 -10.6 l 21.4 -21.4 c 7 -7 10.6 -15.6 10.6 -25.7 c 0 -10.1 -3.5 -18.7 -10.6 -26 L 213.1 222.4 z" stroke-linecap="round"/>
</g>
</svg>